<svg xmlns="http://www.w3.org/2000/svg" xmlns:xlink="http://www.w3.org/1999/xlink" version="1.1" x="0px" y="0px" viewBox="0 0 100 100" style="enable-background:new 0 0 100 100;" xml:space="preserve"><g><path d="M67.5,37.8h-35c-0.6,0-1,0.4-1,1s0.4,1,1,1h35c0.6,0,1-0.4,1-1S68.1,37.8,67.5,37.8z"></path><path d="M67.5,49h-35c-0.6,0-1,0.4-1,1s0.4,1,1,1h35c0.6,0,1-0.4,1-1S68.1,49,67.5,49z"></path><path d="M67.5,60.2h-35c-0.6,0-1,0.4-1,1s0.4,1,1,1h35c0.6,0,1-0.4,1-1S68.1,60.2,67.5,60.2z"></path><path d="M50,10.5c-21.8,0-39.5,17.7-39.5,39.5S28.2,89.5,50,89.5S89.5,71.8,89.5,50S71.8,10.5,50,10.5z M50,87.5   c-20.7,0-37.5-16.8-37.5-37.5S29.3,12.5,50,12.5S87.5,29.3,87.5,50S70.7,87.5,50,87.5z"></path></g></svg>